<svg width="24" height="24" viewBox="0 0 24 24" fill="none" xmlns="http://www.w3.org/2000/svg">
<path fill-rule="evenodd" clip-rule="evenodd" d="M11.2568 4.24999C11.2567 4.24999 11.2569 4.24999 11.2568 4.24999L12.7225 4.25299C16.4431 4.26189 19.7196 7.25736 19.7649 10.9919L19.765 11.001L19.765 14.789C19.765 15.5297 19.8636 16.1237 20.1735 16.5973L20.4599 17.0343C21.2116 18.1791 20.418 19.75 19.015 19.75H15.6742C15.5283 20.4651 15.1754 21.1279 14.6516 21.6516C13.9484 22.3549 12.9946 22.75 12 22.75C11.0054 22.75 10.0516 22.3549 9.34834 21.6516C8.82455 21.1279 8.47172 20.4651 8.32574 19.75H4.98499C3.58363 19.75 2.78648 18.1805 3.54002 17.0344C3.53986 17.0346 3.54018 17.0342 3.54002 17.0344L3.82667 16.5969C4.13694 16.124 4.23499 15.5314 4.23499 14.79V10.9947C4.26108 7.26194 7.52967 4.24121 11.2568 4.24999ZM9.87867 19.75C9.98949 20.0634 10.1694 20.3514 10.409 20.591C10.831 21.0129 11.4033 21.25 12 21.25C12.5967 21.25 13.169 21.0129 13.591 20.591C13.8305 20.3514 14.0105 20.0634 14.1213 19.75H9.87867ZM4.98499 18.25C4.81664 18.25 4.67384 18.0401 4.79348 17.8583L4.79431 17.857L5.08109 17.4194C5.63283 16.5783 5.73499 15.6286 5.73499 14.79V11.0027C5.75638 8.15469 8.29329 5.7429 11.2532 5.74998L12.7192 5.75298C12.7191 5.75298 12.7193 5.75298 12.7192 5.75298C15.685 5.76022 18.2278 8.15823 18.265 11.0057V14.789C18.265 15.6283 18.3684 16.5782 18.9184 17.4187L19.2057 17.857C19.326 18.0403 19.1819 18.25 19.015 18.25H4.98499Z" fill="#354B68"/>
<path fill-rule="evenodd" clip-rule="evenodd" d="M12 2.75C11.6685 2.75 11.3505 2.8817 11.1161 3.11612C10.8817 3.35054 10.75 3.66848 10.75 4V4.25H13.25V4C13.25 3.66848 13.1183 3.35054 12.8839 3.11612C12.6495 2.8817 12.3315 2.75 12 2.75ZM10.0555 2.05546C10.5712 1.53973 11.2707 1.25 12 1.25C12.7293 1.25 13.4288 1.53973 13.9445 2.05546C14.4603 2.57118 14.75 3.27065 14.75 4V5C14.75 5.41421 14.4142 5.75 14 5.75H10C9.58579 5.75 9.25 5.41421 9.25 5V4C9.25 3.27065 9.53973 2.57118 10.0555 2.05546Z" fill="#354B68"/>
</svg>
