<svg width="25" height="24" viewBox="0 0 25 24" fill="none" xmlns="http://www.w3.org/2000/svg">
<path fill-rule="evenodd" clip-rule="evenodd" d="M11.5068 4.25002C11.5069 4.25002 11.5067 4.25002 11.5068 4.25002L12.9725 4.25302C16.6931 4.26192 19.9696 7.25739 20.0149 10.9919L20.015 11.001L20.015 14.789C20.015 15.5297 20.1136 16.1238 20.4235 16.5973L20.7099 17.0344C21.4616 18.1791 20.668 19.75 19.265 19.75H15.9242C15.7783 20.4651 15.4254 21.1279 14.9016 21.6517C14.1984 22.3549 13.2446 22.75 12.25 22.75C11.2554 22.75 10.3016 22.3549 9.59834 21.6517C9.07455 21.1279 8.72172 20.4651 8.57574 19.75H5.23499C3.83363 19.75 3.03648 18.1806 3.79002 17.0344C3.79018 17.0342 3.78986 17.0347 3.79002 17.0344L4.07667 16.597C4.38694 16.124 4.48499 15.5314 4.48499 14.79V10.9948C4.51108 7.26198 7.77967 4.24124 11.5068 4.25002ZM10.1287 19.75C10.2395 20.0634 10.4194 20.3515 10.659 20.591C11.081 21.013 11.6533 21.25 12.25 21.25C12.8467 21.25 13.419 21.013 13.841 20.591C14.0805 20.3515 14.2605 20.0634 14.3713 19.75H10.1287ZM5.23499 18.25C5.06664 18.25 4.92384 18.0401 5.04348 17.8583L5.04431 17.8571L5.33109 17.4194C5.88283 16.5784 5.98499 15.6286 5.98499 14.79V11.0027C6.00638 8.15473 8.54329 5.74293 11.5032 5.75001L12.9692 5.75301C12.9691 5.75301 12.9693 5.75301 12.9692 5.75301C15.935 5.76025 18.4778 8.15827 18.515 11.0057V14.789C18.515 15.6283 18.6184 16.5783 19.1684 17.4187L19.4557 17.8571C19.576 18.0403 19.4319 18.25 19.265 18.25H5.23499Z" fill="#65A7E5"/>
<path fill-rule="evenodd" clip-rule="evenodd" d="M12.25 2.75C11.9185 2.75 11.6005 2.8817 11.3661 3.11612C11.1317 3.35054 11 3.66848 11 4V4.25H13.5V4C13.5 3.66848 13.3683 3.35054 13.1339 3.11612C12.8995 2.8817 12.5815 2.75 12.25 2.75ZM10.3055 2.05546C10.8212 1.53973 11.5207 1.25 12.25 1.25C12.9793 1.25 13.6788 1.53973 14.1945 2.05546C14.7103 2.57118 15 3.27065 15 4V5C15 5.41421 14.6642 5.75 14.25 5.75H10.25C9.83579 5.75 9.5 5.41421 9.5 5V4C9.5 3.27065 9.78973 2.57118 10.3055 2.05546Z" fill="#65A7E5"/>
</svg>
