<svg width="25" height="24" viewBox="0 0 25 24" fill="none" xmlns="http://www.w3.org/2000/svg">
<path fill-rule="evenodd" clip-rule="evenodd" d="M18.789 4.88981C17.7614 4.75159 16.4067 4.75 14.5 4.75H10.5C8.59341 4.75 7.23893 4.75184 6.21144 4.89017C5.20552 5.02559 4.62567 5.27935 4.2021 5.70256C3.77886 6.12544 3.52512 6.7049 3.38981 7.71097C3.25159 8.73861 3.25 10.0933 3.25 12V14C3.25 15.9066 3.25184 17.2611 3.39017 18.2886C3.52559 19.2945 3.77935 19.8743 4.20256 20.2979C4.62544 20.7211 5.2049 20.9749 6.21097 21.1102C7.23861 21.2484 8.59329 21.25 10.5 21.25H14.5C16.4066 21.25 17.7611 21.2482 18.7886 21.1098C19.7945 20.9744 20.3743 20.7206 20.7979 20.2974C21.2211 19.8746 21.4749 19.2951 21.6102 18.289C21.7484 17.2614 21.75 15.9067 21.75 14V12C21.75 10.0934 21.7482 8.73893 21.6098 7.71144C21.4744 6.70552 21.2206 6.12567 20.7974 5.7021C20.3746 5.27886 19.7951 5.02512 18.789 4.88981ZM18.989 3.40319C20.1614 3.56088 21.1104 3.89314 21.8586 4.6419C22.6064 5.39033 22.9386 6.33898 23.0964 7.51131C23.25 8.65225 23.25 10.1105 23.25 11.9523V14.0565C23.25 15.8941 23.25 17.3498 23.0968 18.489C22.9391 19.6614 22.6069 20.6104 21.8581 21.3586C21.1097 22.1064 20.161 22.4386 18.9887 22.5964C17.8477 22.75 16.3895 22.75 14.5477 22.75H10.4435C8.60593 22.75 7.15025 22.75 6.01103 22.5968C4.8386 22.4391 3.88957 22.1069 3.14144 21.3581C2.39365 20.6097 2.06141 19.661 1.90358 18.4887C1.74998 17.3477 1.74999 15.8895 1.75 14.0476L1.75 11.9436C1.74998 10.1059 1.74997 8.65025 1.90319 7.51103C2.06088 6.3386 2.39314 5.38957 3.1419 4.64144C3.89033 3.89365 4.83898 3.56141 6.01131 3.40358C7.15225 3.24998 8.61046 3.24999 10.4524 3.25L14.5564 3.25C16.3941 3.24998 17.8497 3.24997 18.989 3.40319Z" fill="#65A7E5"/>
<path d="M7.5 4V2.5M17.5 4V2.5M3 9H22" stroke="#65A7E5" stroke-width="1.5" stroke-linecap="round"/>
<path d="M18.5 17C18.5 17.2652 18.3946 17.5196 18.2071 17.7071C18.0196 17.8946 17.7652 18 17.5 18C17.2348 18 16.9804 17.8946 16.7929 17.7071C16.6054 17.5196 16.5 17.2652 16.5 17C16.5 16.7348 16.6054 16.4804 16.7929 16.2929C16.9804 16.1054 17.2348 16 17.5 16C17.7652 16 18.0196 16.1054 18.2071 16.2929C18.3946 16.4804 18.5 16.7348 18.5 17ZM18.5 13C18.5 13.2652 18.3946 13.5196 18.2071 13.7071C18.0196 13.8946 17.7652 14 17.5 14C17.2348 14 16.9804 13.8946 16.7929 13.7071C16.6054 13.5196 16.5 13.2652 16.5 13C16.5 12.7348 16.6054 12.4804 16.7929 12.2929C16.9804 12.1054 17.2348 12 17.5 12C17.7652 12 18.0196 12.1054 18.2071 12.2929C18.3946 12.4804 18.5 12.7348 18.5 13ZM13.5 17C13.5 17.2652 13.3946 17.5196 13.2071 17.7071C13.0196 17.8946 12.7652 18 12.5 18C12.2348 18 11.9804 17.8946 11.7929 17.7071C11.6054 17.5196 11.5 17.2652 11.5 17C11.5 16.7348 11.6054 16.4804 11.7929 16.2929C11.9804 16.1054 12.2348 16 12.5 16C12.7652 16 13.0196 16.1054 13.2071 16.2929C13.3946 16.4804 13.5 16.7348 13.5 17ZM13.5 13C13.5 13.2652 13.3946 13.5196 13.2071 13.7071C13.0196 13.8946 12.7652 14 12.5 14C12.2348 14 11.9804 13.8946 11.7929 13.7071C11.6054 13.5196 11.5 13.2652 11.5 13C11.5 12.7348 11.6054 12.4804 11.7929 12.2929C11.9804 12.1054 12.2348 12 12.5 12C12.7652 12 13.0196 12.1054 13.2071 12.2929C13.3946 12.4804 13.5 12.7348 13.5 13ZM8.5 17C8.5 17.2652 8.39464 17.5196 8.20711 17.7071C8.01957 17.8946 7.76522 18 7.5 18C7.23478 18 6.98043 17.8946 6.79289 17.7071C6.60536 17.5196 6.5 17.2652 6.5 17C6.5 16.7348 6.60536 16.4804 6.79289 16.2929C6.98043 16.1054 7.23478 16 7.5 16C7.76522 16 8.01957 16.1054 8.20711 16.2929C8.39464 16.4804 8.5 16.7348 8.5 17ZM8.5 13C8.5 13.2652 8.39464 13.5196 8.20711 13.7071C8.01957 13.8946 7.76522 14 7.5 14C7.23478 14 6.98043 13.8946 6.79289 13.7071C6.60536 13.5196 6.5 13.2652 6.5 13C6.5 12.7348 6.60536 12.4804 6.79289 12.2929C6.98043 12.1054 7.23478 12 7.5 12C7.76522 12 8.01957 12.1054 8.20711 12.2929C8.39464 12.4804 8.5 12.7348 8.5 13Z" fill="#65A7E5"/>
</svg>
