<svg width="24" height="24" viewBox="0 0 24 24" fill="none" xmlns="http://www.w3.org/2000/svg">
<path fill-rule="evenodd" clip-rule="evenodd" d="M18.289 4.88981C17.2614 4.75159 15.9067 4.75 14 4.75H10C8.09341 4.75 6.73893 4.75184 5.71144 4.89017C4.70552 5.02559 4.12567 5.27935 3.7021 5.70256C3.27886 6.12544 3.02512 6.7049 2.88981 7.71097C2.75159 8.73861 2.75 10.0933 2.75 12V14C2.75 15.9066 2.75184 17.2611 2.89017 18.2886C3.02559 19.2945 3.27935 19.8743 3.70256 20.2979C4.12544 20.7211 4.7049 20.9749 5.71097 21.1102C6.73861 21.2484 8.09329 21.25 10 21.25H14C15.9066 21.25 17.2611 21.2482 18.2886 21.1098C19.2945 20.9744 19.8743 20.7206 20.2979 20.2974C20.7211 19.8746 20.9749 19.2951 21.1102 18.289C21.2484 17.2614 21.25 15.9067 21.25 14V12C21.25 10.0934 21.2482 8.73893 21.1098 7.71144C20.9744 6.70552 20.7206 6.12567 20.2974 5.7021C19.8746 5.27886 19.2951 5.02512 18.289 4.88981ZM18.489 3.40319C19.6614 3.56088 20.6104 3.89314 21.3586 4.6419C22.1064 5.39033 22.4386 6.33898 22.5964 7.51131C22.75 8.65225 22.75 10.1105 22.75 11.9523V14.0565C22.75 15.8941 22.75 17.3498 22.5968 18.489C22.4391 19.6614 22.1069 20.6104 21.3581 21.3586C20.6097 22.1064 19.661 22.4386 18.4887 22.5964C17.3477 22.75 15.8895 22.75 14.0477 22.75H9.94355C8.10593 22.75 6.65025 22.75 5.51103 22.5968C4.3386 22.4391 3.38957 22.1069 2.64144 21.3581C1.89365 20.6097 1.56141 19.661 1.40358 18.4887C1.24998 17.3477 1.24999 15.8895 1.25 14.0476L1.25 11.9436C1.24998 10.1059 1.24997 8.65026 1.40319 7.51103C1.56088 6.3386 1.89314 5.38957 2.6419 4.64144C3.39033 3.89365 4.33898 3.56141 5.51131 3.40358C6.65225 3.24998 8.11046 3.24999 9.95235 3.25L14.0564 3.25C15.8941 3.24998 17.3497 3.24997 18.489 3.40319Z" fill="#354B68"/>
<path d="M7 4V2.5M17 4V2.5M2.5 9H21.5" stroke="#354B68" stroke-width="1.5" stroke-linecap="round"/>
<path d="M18 17C18 17.2652 17.8946 17.5196 17.7071 17.7071C17.5196 17.8946 17.2652 18 17 18C16.7348 18 16.4804 17.8946 16.2929 17.7071C16.1054 17.5196 16 17.2652 16 17C16 16.7348 16.1054 16.4804 16.2929 16.2929C16.4804 16.1054 16.7348 16 17 16C17.2652 16 17.5196 16.1054 17.7071 16.2929C17.8946 16.4804 18 16.7348 18 17ZM18 13C18 13.2652 17.8946 13.5196 17.7071 13.7071C17.5196 13.8946 17.2652 14 17 14C16.7348 14 16.4804 13.8946 16.2929 13.7071C16.1054 13.5196 16 13.2652 16 13C16 12.7348 16.1054 12.4804 16.2929 12.2929C16.4804 12.1054 16.7348 12 17 12C17.2652 12 17.5196 12.1054 17.7071 12.2929C17.8946 12.4804 18 12.7348 18 13ZM13 17C13 17.2652 12.8946 17.5196 12.7071 17.7071C12.5196 17.8946 12.2652 18 12 18C11.7348 18 11.4804 17.8946 11.2929 17.7071C11.1054 17.5196 11 17.2652 11 17C11 16.7348 11.1054 16.4804 11.2929 16.2929C11.4804 16.1054 11.7348 16 12 16C12.2652 16 12.5196 16.1054 12.7071 16.2929C12.8946 16.4804 13 16.7348 13 17ZM13 13C13 13.2652 12.8946 13.5196 12.7071 13.7071C12.5196 13.8946 12.2652 14 12 14C11.7348 14 11.4804 13.8946 11.2929 13.7071C11.1054 13.5196 11 13.2652 11 13C11 12.7348 11.1054 12.4804 11.2929 12.2929C11.4804 12.1054 11.7348 12 12 12C12.2652 12 12.5196 12.1054 12.7071 12.2929C12.8946 12.4804 13 12.7348 13 13ZM8 17C8 17.2652 7.89464 17.5196 7.70711 17.7071C7.51957 17.8946 7.26522 18 7 18C6.73478 18 6.48043 17.8946 6.29289 17.7071C6.10536 17.5196 6 17.2652 6 17C6 16.7348 6.10536 16.4804 6.29289 16.2929C6.48043 16.1054 6.73478 16 7 16C7.26522 16 7.51957 16.1054 7.70711 16.2929C7.89464 16.4804 8 16.7348 8 17ZM8 13C8 13.2652 7.89464 13.5196 7.70711 13.7071C7.51957 13.8946 7.26522 14 7 14C6.73478 14 6.48043 13.8946 6.29289 13.7071C6.10536 13.5196 6 13.2652 6 13C6 12.7348 6.10536 12.4804 6.29289 12.2929C6.48043 12.1054 6.73478 12 7 12C7.26522 12 7.51957 12.1054 7.70711 12.2929C7.89464 12.4804 8 12.7348 8 13Z" fill="#354B68"/>
</svg>
