<svg width="24" height="24" viewBox="0 0 24 24" fill="none" xmlns="http://www.w3.org/2000/svg">
<path fill-rule="evenodd" clip-rule="evenodd" d="M22.3 8.5C22.2 7.5 21.7 6.7 20.8 6.4C20.1 5 19.1 4.1 18.4 3.5C18 3.2 17.7 3 17.4 2.9C17.3 2.8 17.2 2.8 17.1 2.7C17 2.6 15.7 2.1 14 1.9C12.3 1.6 9.99999 1.6 7.89999 2.6C5.39999 3.7 3.59999 6 2.69999 9.3C1.39999 13.8 1.29999 16.7 2.49999 18.7C3.09999 19.7 3.99999 20.4 5.09999 20.9C6.09999 21.4 7.29999 21.7 8.59999 21.9V22.3H10.1V21.1C10.7 21.3 11.2 21.4 11.8 21.4C12.7 21.4 13.6 21.2 14.4 20.8V22.4H15.9V22C18.7 21.3 20.2 19.2 21 17.3C21.4 16.3 21.7 15.4 21.8 14.8C21.9 14.2 22 13.8 22 13.6C22.1 12.3 22.1 11.1 21.9 10.1C22 9.9 22.1 9.7 22.1 9.6C22.1 9.6 22.1 9.5 22.2 9.5C22.2 9.3 22.3 9.1 22.3 8.9C22.3 8.6 22.3 8.6 22.3 8.5ZM19.2 10.8L18.8 11.2L17.2 9.8C16.9 9.5 16.7 9.2 16.6 8.9C16.6 8.8 16.6 8.7 16.6 8.7C16.6 8.7 16.6 8.7 16.6 8.6V8.5V8.4C16.7 8.2 16.8 8.1 16.9 8C17 7.9 17.1 7.9 17.3 7.9C17.6 7.9 17.9 8.1 18 8.4C18.1 8.5 18.1 8.6 18.3 8.7C18.4 8.8 18.6 8.8 18.7 8.8C18.9 8.8 19.3 8.7 19.4 8.3C19.5 8 19.7 7.9 20 7.9C20.4 7.9 20.7 8.2 20.7 8.7C20.7 8.7 20.7 8.7 20.7 8.8C20.7 8.9 20.7 8.9 20.7 9.1C20.7 9.3 20.6 9.5 20.4 9.7C20.3 9.8 20.3 9.8 20.3 9.9C20.3 10 20.2 10 20.2 10L19.2 10.8ZM3.89999 10.8C3.99999 10.5 4.09999 10.1 4.19999 9.8C4.99999 6.9 6.39999 4.9 8.39999 4C10.2 3.2 12.1 3.2 13.7 3.4C14.5 3.5 15.1 3.7 15.6 3.8C15.8 3.9 16 4 16.2 4C16.3 4 16.3 4 16.3 4.1C16.3 4.1 16.4 4.2 16.5 4.2C16.7 4.3 16.9 4.4 17.2 4.7C17.7 5.1 18.4 5.7 18.9 6.6C18.8 6.7 18.6 6.7 18.5 6.8C18.1 6.5 17.6 6.3 17.1 6.3C16.2 6.3 15.5 6.8 15.1 7.6C13 10 10.4 11 8.39999 11.4C7.49999 11.6 6.79999 11.6 6.19999 11.6C7.89999 11 9.99999 10 11.7 8.5C12 8.2 12 7.7 11.7 7.5C11.4 7.2 11 7.2 10.7 7.5C9.39999 8.7 7.69999 9.5 6.29999 10.1C5.59999 10.4 4.89999 10.6 4.49999 10.7C4.19999 10.7 3.99999 10.8 3.89999 10.8ZM3.79999 18C3.09999 16.8 2.99999 15 3.59999 12.3C3.69999 12.3 3.79999 12.3 3.89999 12.3C4.29999 15.4 6.09999 18.7 8.59999 20.4V20.5C7.49999 20.3 6.59999 20 5.79999 19.7C4.89999 19.2 4.19999 18.7 3.79999 18ZM6.19999 13.1C8.09999 13.1 11.8 12.6 15.3 9.7C15.5 10.2 15.8 10.6 16.2 11L18.2 12.7C17.9 14.4 17.1 16.2 15.9 17.6C14.7 19 13.2 20 11.7 20C10.2 20 8.79999 19.1 7.59999 17.7C6.49999 16.4 5.69999 14.8 5.39999 13.1C5.69999 13.1 5.89999 13.1 6.19999 13.1ZM20.5 13.4C20.5 13.5 20.5 13.6 20.5 13.7C20.5 13.9 20.4 14.1 20.4 14.4C20.3 15 20.1 15.7 19.7 16.6C19 18.1 17.9 19.8 15.9 20.5V19.9C18.1 18.1 19.6 15.1 19.8 12.3L20.6 11.6C20.6 12.1 20.6 12.7 20.5 13.4ZM12.5 15.8H11.5C11.3 15.8 11.1 15.9 11 16C10.9 16.1 10.8 16.3 10.8 16.5C10.8 16.7 10.9 16.9 11 17C11.1 17.1 11.3 17.2 11.5 17.2H12.5C12.7 17.2 12.9 17.1 13 17C13.1 16.9 13.2 16.7 13.2 16.5C13.2 16.2 12.9 15.8 12.5 15.8Z" fill="#354B68"/>
</svg>
