<svg width="24" height="24" viewBox="0 0 24 24" fill="none" xmlns="http://www.w3.org/2000/svg">
<path fill-rule="evenodd" clip-rule="evenodd" d="M22.3 8.49998C22.2 7.49998 21.7 6.69998 20.8 6.39998C20.1 4.99998 19.1 4.09998 18.4 3.49998C18 3.19998 17.7 2.99998 17.4 2.89998C17.3 2.79998 17.2 2.79998 17.1 2.69998C17 2.59998 15.7 2.09998 14 1.89998C12.3 1.59998 10 1.59998 7.90001 2.59998C5.40001 3.69998 3.60001 5.99998 2.70001 9.29998C1.40001 13.8 1.30001 16.7 2.50001 18.7C3.10001 19.7 4.00001 20.4 5.10001 20.9C6.10001 21.4 7.30001 21.7 8.60001 21.9V22.3H10.1V21.1C10.7 21.3 11.2 21.4 11.8 21.4C12.7 21.4 13.6 21.2 14.4 20.8V22.4H15.9V22C18.7 21.3 20.2 19.2 21 17.3C21.4 16.3 21.7 15.4 21.8 14.8C21.9 14.2 22 13.8 22 13.6C22.1 12.3 22.1 11.1 21.9 10.1C22 9.89998 22.1 9.69998 22.1 9.59998C22.1 9.59998 22.1 9.49998 22.2 9.49998C22.2 9.29998 22.3 9.09998 22.3 8.89998C22.3 8.59998 22.3 8.59998 22.3 8.49998ZM19.2 10.8L18.8 11.2L17.2 9.79998C16.9 9.49998 16.7 9.19998 16.6 8.89998C16.6 8.79998 16.6 8.69998 16.6 8.69998C16.6 8.69998 16.6 8.69998 16.6 8.59998V8.49998V8.39998C16.7 8.19998 16.8 8.09998 16.9 7.99998C17 7.89998 17.1 7.89998 17.3 7.89998C17.6 7.89998 17.9 8.09998 18 8.39998C18.1 8.49998 18.1 8.59998 18.3 8.69998C18.4 8.79998 18.6 8.79998 18.7 8.79998C18.9 8.79998 19.3 8.69998 19.4 8.29998C19.5 7.99998 19.7 7.89998 20 7.89998C20.4 7.89998 20.7 8.19998 20.7 8.69998C20.7 8.69998 20.7 8.69998 20.7 8.79998C20.7 8.89998 20.7 8.89998 20.7 9.09998C20.7 9.29998 20.6 9.49998 20.4 9.69998C20.3 9.79998 20.3 9.79998 20.3 9.89998C20.3 9.99998 20.2 9.99998 20.2 9.99998L19.2 10.8ZM3.90001 10.8C4.00001 10.5 4.10001 10.1 4.20001 9.79998C5.00001 6.89998 6.40001 4.89998 8.40001 3.99998C10.2 3.19998 12.1 3.19998 13.7 3.39998C14.5 3.49998 15.1 3.69998 15.6 3.79998C15.8 3.89998 16 3.99998 16.2 3.99998C16.3 3.99998 16.3 3.99998 16.3 4.09998C16.3 4.09998 16.4 4.19998 16.5 4.19998C16.7 4.29998 16.9 4.39998 17.2 4.69998C17.7 5.09998 18.4 5.69998 18.9 6.59998C18.8 6.69998 18.6 6.69998 18.5 6.79998C18.1 6.49998 17.6 6.29998 17.1 6.29998C16.2 6.29998 15.5 6.79998 15.1 7.59998C13 9.99998 10.4 11 8.40001 11.4C7.50001 11.6 6.80001 11.6 6.20001 11.6C7.90001 11 10 9.99998 11.7 8.49998C12 8.19998 12 7.69998 11.7 7.49998C11.4 7.19998 11 7.19998 10.7 7.49998C9.40001 8.69998 7.70001 9.49998 6.30001 10.1C5.60001 10.4 4.90001 10.6 4.50001 10.7C4.20001 10.7 4.00001 10.8 3.90001 10.8ZM3.80001 18C3.10001 16.8 3.00001 15 3.60001 12.3C3.70001 12.3 3.80001 12.3 3.90001 12.3C4.30001 15.4 6.10001 18.7 8.60001 20.4V20.5C7.50001 20.3 6.60001 20 5.80001 19.7C4.90001 19.2 4.20001 18.7 3.80001 18ZM6.20001 13.1C8.10001 13.1 11.8 12.6 15.3 9.69998C15.5 10.2 15.8 10.6 16.2 11L18.2 12.7C17.9 14.4 17.1 16.2 15.9 17.6C14.7 19 13.2 20 11.7 20C10.2 20 8.80001 19.1 7.60001 17.7C6.50001 16.4 5.70001 14.8 5.40001 13.1C5.70001 13.1 5.90001 13.1 6.20001 13.1ZM20.5 13.4C20.5 13.5 20.5 13.6 20.5 13.7C20.5 13.9 20.4 14.1 20.4 14.4C20.3 15 20.1 15.7 19.7 16.6C19 18.1 17.9 19.8 15.9 20.5V19.9C18.1 18.1 19.6 15.1 19.8 12.3L20.6 11.6C20.6 12.1 20.6 12.7 20.5 13.4ZM12.5 15.8H11.5C11.3 15.8 11.1 15.9 11 16C10.9 16.1 10.8 16.3 10.8 16.5C10.8 16.7 10.9 16.9 11 17C11.1 17.1 11.3 17.2 11.5 17.2H12.5C12.7 17.2 12.9 17.1 13 17C13.1 16.9 13.2 16.7 13.2 16.5C13.2 16.2 12.9 15.8 12.5 15.8Z" fill="#65A7E5"/>
</svg>
