<svg width="16" height="17" viewBox="0 0 16 17" fill="none" xmlns="http://www.w3.org/2000/svg">
<path d="M8 3.83331C11.3136 3.83331 14 5.40015 14 7.33331V9.66665C14 11.5998 11.3136 13.1666 8 13.1666C4.74527 13.1666 2.096 11.6552 2.00273 9.7699L2 9.66665V7.33331C2 5.40015 4.68636 3.83331 8 3.83331ZM8 10.8333C5.97091 10.8333 4.17636 10.2453 3.09091 9.34581V9.66665C3.09091 10.7645 5.20891 12 8 12C10.7327 12 12.8207 10.8158 12.9064 9.73548L12.9091 9.66665L12.9096 9.34581C11.8242 10.2453 10.0296 10.8333 8 10.8333ZM8 4.99998C5.20891 4.99998 3.09091 6.23548 3.09091 7.33331C3.09091 8.43115 5.20891 9.66665 8 9.66665C10.7911 9.66665 12.9091 8.43115 12.9091 7.33331C12.9091 6.23548 10.7911 4.99998 8 4.99998Z" fill="#647994"/>
</svg>
