<svg width="24" height="24" viewBox="0 0 24 24" fill="none" xmlns="http://www.w3.org/2000/svg">
<path d="M21.75 12.2312C21.75 11.5098 21.6853 10.8162 21.565 10.1503H11.9835V14.0902H17.4586C17.2182 15.3572 16.4968 16.4301 15.4147 17.1515V19.7133H18.7165C20.6402 17.9376 21.75 15.3295 21.75 12.2312Z" fill="#4285F4"/>
<path d="M11.9835 22.1735C14.7303 22.1735 17.0332 21.2671 18.7165 19.7133L15.4147 17.1515C14.5083 17.7619 13.3523 18.1318 11.9835 18.1318C9.33837 18.1318 7.09096 16.3468 6.28633 13.9422H2.90134V16.5688C4.57534 19.8891 8.00657 22.1735 11.9835 22.1735Z" fill="#34A853"/>
<path d="M6.28633 13.933C6.08286 13.3225 5.96263 12.6751 5.96263 12C5.96263 11.3249 6.08286 10.6774 6.28633 10.067V7.44043H2.90134C2.2077 8.80923 1.81001 10.3537 1.81001 12C1.81001 13.6463 2.2077 15.1908 2.90134 16.5596L5.53719 14.5064L6.28633 13.933Z" fill="#FBBC05"/>
<path d="M11.9835 5.87742C13.4817 5.87742 14.8135 6.39534 15.8771 7.39419L18.7905 4.48088C17.024 2.83462 14.7303 1.82653 11.9835 1.82653C8.00657 1.82653 4.57534 4.11093 2.90134 7.44043L6.28633 10.067C7.09096 7.6624 9.33837 5.87742 11.9835 5.87742Z" fill="#EA4335"/>
</svg>
