<svg width="24" height="24" viewBox="0 0 24 24" fill="none" xmlns="http://www.w3.org/2000/svg">
<path fill-rule="evenodd" clip-rule="evenodd" d="M1.44 11.9999C1.44 10.6132 1.71314 9.24 2.24383 7.9588C2.77452 6.67761 3.55237 5.51348 4.53296 4.53289C5.51354 3.55231 6.67767 2.77446 7.95887 2.24377C9.24006 1.71308 10.6132 1.43994 12 1.43994C13.3868 1.43994 14.7599 1.71308 16.0411 2.24377C17.3223 2.77446 18.4865 3.55231 19.4671 4.53289C20.4476 5.51348 21.2255 6.67761 21.7562 7.9588C22.2869 9.24 22.56 10.6132 22.56 11.9999C22.56 14.8006 21.4474 17.4866 19.4671 19.467C17.4867 21.4474 14.8007 22.5599 12 22.5599C9.19932 22.5599 6.51334 21.4474 4.53296 19.467C2.55257 17.4866 1.44 14.8006 1.44 11.9999ZM12 2.87994C10.8023 2.87994 9.61642 3.11584 8.50993 3.57416C7.40344 4.03248 6.39806 4.70426 5.55119 5.55113C4.70432 6.398 4.03254 7.40338 3.57422 8.50987C3.1159 9.61636 2.88 10.8023 2.88 11.9999C2.88 13.1976 3.1159 14.3835 3.57422 15.49C4.03254 16.5965 4.70432 17.6019 5.55119 18.4488C6.39806 19.2956 7.40344 19.9674 8.50993 20.4257C9.61642 20.884 10.8023 21.1199 12 21.1199C14.4188 21.1199 16.7385 20.1591 18.4488 18.4488C20.1591 16.7384 21.12 14.4187 21.12 11.9999C21.12 9.58117 20.1591 7.26146 18.4488 5.55113C16.7385 3.8408 14.4188 2.87994 12 2.87994ZM4.92 11.9999C4.92 10.1222 5.66593 8.32138 6.99369 6.99363C8.32144 5.66587 10.1223 4.91994 12 4.91994C13.8777 4.91994 15.6786 5.66587 17.0063 6.99363C18.3341 8.32138 19.08 10.1222 19.08 11.9999C19.08 13.8777 18.3341 15.6785 17.0063 17.0063C15.6786 18.334 13.8777 19.0799 12 19.0799C10.1223 19.0799 8.32144 18.334 6.99369 17.0063C5.66593 15.6785 4.92 13.8777 4.92 11.9999ZM12 6.27994C11.2488 6.27994 10.505 6.42789 9.81105 6.71535C9.11707 7.00281 8.4865 7.42414 7.95535 7.95529C7.4242 8.48644 7.00287 9.11701 6.71541 9.81099C6.42795 10.505 6.28 11.2488 6.28 11.9999C6.28 12.7511 6.42795 13.4949 6.71541 14.1889C7.00287 14.8829 7.4242 15.5134 7.95535 16.0446C8.4865 16.5757 9.11707 16.9971 9.81105 17.2845C10.505 17.572 11.2488 17.7199 12 17.7199C13.517 17.7199 14.9719 17.1173 16.0447 16.0446C17.1174 14.9719 17.72 13.517 17.72 11.9999C17.72 10.4829 17.1174 9.028 16.0447 7.95529C14.9719 6.88258 13.517 6.27994 12 6.27994ZM12 8.39994C11.5272 8.39994 11.0591 8.49306 10.6223 8.67398C10.1856 8.85489 9.78871 9.12007 9.45442 9.45436C9.12013 9.78865 8.85495 10.1855 8.67404 10.6223C8.49312 11.0591 8.4 11.5272 8.4 11.9999C8.4 12.4727 8.49312 12.9408 8.67404 13.3776C8.85495 13.8144 9.12013 14.2112 9.45442 14.5455C9.78871 14.8798 10.1856 15.145 10.6223 15.3259C11.0591 15.5068 11.5272 15.5999 12 15.5999C12.9548 15.5999 13.8705 15.2207 14.5456 14.5455C15.2207 13.8704 15.6 12.9547 15.6 11.9999C15.6 11.0452 15.2207 10.1295 14.5456 9.45436C13.8705 8.77923 12.9548 8.39994 12 8.39994ZM9.68 11.9999C9.68 11.3846 9.92443 10.7945 10.3595 10.3595C10.7946 9.92437 11.3847 9.67994 12 9.67994C12.6153 9.67994 13.2054 9.92437 13.6405 10.3595C14.0756 10.7945 14.32 11.3846 14.32 11.9999C14.32 12.6152 14.0756 13.2053 13.6405 13.6404C13.2054 14.0755 12.6153 14.3199 12 14.3199C11.3847 14.3199 10.7946 14.0755 10.3595 13.6404C9.92443 13.2053 9.68 12.6152 9.68 11.9999Z" fill="#65A7E5"/>
</svg>
