<svg width="24" height="24" viewBox="0 0 24 24" fill="none" xmlns="http://www.w3.org/2000/svg">
<path fill-rule="evenodd" clip-rule="evenodd" d="M1.44 12C1.44 10.6132 1.71314 9.24006 2.24383 7.95887C2.77452 6.67767 3.55237 5.51354 4.53295 4.53296C5.51354 3.55237 6.67767 2.77452 7.95887 2.24383C9.24006 1.71314 10.6132 1.44 12 1.44C13.3868 1.44 14.7599 1.71314 16.0411 2.24383C17.3223 2.77452 18.4865 3.55237 19.4671 4.53296C20.4476 5.51354 21.2255 6.67767 21.7562 7.95887C22.2869 9.24006 22.56 10.6132 22.56 12C22.56 14.8007 21.4474 17.4867 19.4671 19.4671C17.4867 21.4474 14.8007 22.56 12 22.56C9.19932 22.56 6.51334 21.4474 4.53295 19.4671C2.55257 17.4867 1.44 14.8007 1.44 12ZM12 2.88C10.8023 2.88 9.61642 3.1159 8.50993 3.57422C7.40344 4.03254 6.39806 4.70432 5.55119 5.55119C4.70432 6.39806 4.03254 7.40344 3.57422 8.50993C3.1159 9.61642 2.88 10.8023 2.88 12C2.88 13.1977 3.1159 14.3836 3.57422 15.4901C4.03254 16.5966 4.70432 17.6019 5.55119 18.4488C6.39806 19.2957 7.40344 19.9675 8.50993 20.4258C9.61642 20.8841 10.8023 21.12 12 21.12C14.4188 21.12 16.7385 20.1592 18.4488 18.4488C20.1591 16.7385 21.12 14.4188 21.12 12C21.12 9.58123 20.1591 7.26152 18.4488 5.55119C16.7385 3.84086 14.4188 2.88 12 2.88ZM4.92 12C4.92 10.1223 5.66593 8.32144 6.99369 6.99369C8.32144 5.66593 10.1223 4.92 12 4.92C13.8777 4.92 15.6786 5.66593 17.0063 6.99369C18.3341 8.32144 19.08 10.1223 19.08 12C19.08 13.8777 18.3341 15.6786 17.0063 17.0063C15.6786 18.3341 13.8777 19.08 12 19.08C10.1223 19.08 8.32144 18.3341 6.99369 17.0063C5.66593 15.6786 4.92 13.8777 4.92 12ZM12 6.28C11.2488 6.28 10.505 6.42796 9.81105 6.71541C9.11707 7.00287 8.4865 7.4242 7.95535 7.95535C7.4242 8.4865 7.00287 9.11707 6.71541 9.81105C6.42796 10.505 6.28 11.2488 6.28 12C6.28 12.7512 6.42796 13.495 6.71541 14.189C7.00287 14.8829 7.4242 15.5135 7.95535 16.0447C8.4865 16.5758 9.11707 16.9971 9.81105 17.2846C10.505 17.5721 11.2488 17.72 12 17.72C13.517 17.72 14.9719 17.1174 16.0447 16.0447C17.1174 14.9719 17.72 13.517 17.72 12C17.72 10.483 17.1174 9.02806 16.0447 7.95535C14.9719 6.88264 13.517 6.28 12 6.28ZM12 8.4C11.5272 8.4 11.0591 8.49312 10.6223 8.67404C10.1856 8.85495 9.78871 9.12013 9.45442 9.45442C9.12013 9.78871 8.85495 10.1856 8.67404 10.6223C8.49312 11.0591 8.4 11.5272 8.4 12C8.4 12.4728 8.49312 12.9409 8.67404 13.3777C8.85495 13.8144 9.12013 14.2113 9.45442 14.5456C9.78871 14.8799 10.1856 15.1451 10.6223 15.326C11.0591 15.5069 11.5272 15.6 12 15.6C12.9548 15.6 13.8705 15.2207 14.5456 14.5456C15.2207 13.8705 15.6 12.9548 15.6 12C15.6 11.0452 15.2207 10.1295 14.5456 9.45442C13.8705 8.77929 12.9548 8.4 12 8.4ZM9.68 12C9.68 11.3847 9.92443 10.7946 10.3595 10.3595C10.7946 9.92443 11.3847 9.68 12 9.68C12.6153 9.68 13.2054 9.92443 13.6405 10.3595C14.0756 10.7946 14.32 11.3847 14.32 12C14.32 12.6153 14.0756 13.2054 13.6405 13.6405C13.2054 14.0756 12.6153 14.32 12 14.32C11.3847 14.32 10.7946 14.0756 10.3595 13.6405C9.92443 13.2054 9.68 12.6153 9.68 12Z" fill="#354B68"/>
</svg>
