<svg width="16" height="17" viewBox="0 0 16 17" fill="none" xmlns="http://www.w3.org/2000/svg">
<path d="M9.66667 12.5C9.2 12.5 8.80556 12.3389 8.48333 12.0166C8.16111 11.6944 8 11.3 8 10.8333C8 10.3666 8.16111 9.9722 8.48333 9.64998C8.80556 9.32776 9.2 9.16665 9.66667 9.16665C10.1333 9.16665 10.5278 9.32776 10.85 9.64998C11.1722 9.9722 11.3333 10.3666 11.3333 10.8333C11.3333 11.3 11.1722 11.6944 10.85 12.0166C10.5278 12.3389 10.1333 12.5 9.66667 12.5ZM3.33333 15.1666C2.96667 15.1666 2.65289 15.0362 2.392 14.7753C2.13111 14.5144 2.00044 14.2004 2 13.8333V4.49998C2 4.13331 2.13067 3.81954 2.392 3.55865C2.65333 3.29776 2.96711 3.16709 3.33333 3.16665H4V1.83331H5.33333V3.16665H10.6667V1.83331H12V3.16665H12.6667C13.0333 3.16665 13.3473 3.29731 13.6087 3.55865C13.87 3.81998 14.0004 4.13376 14 4.49998V13.8333C14 14.2 13.8696 14.514 13.6087 14.7753C13.3478 15.0366 13.0338 15.1671 12.6667 15.1666H3.33333ZM3.33333 13.8333H12.6667V7.16665H3.33333V13.8333ZM3.33333 5.83331H12.6667V4.49998H3.33333V5.83331Z" fill="#647994"/>
</svg>
