<svg width="25" height="24" viewBox="0 0 25 24" fill="none" xmlns="http://www.w3.org/2000/svg">
<path fill-rule="evenodd" clip-rule="evenodd" d="M5.25 7.5C4.42157 7.5 3.75 8.17157 3.75 9V18C3.75 18.8284 4.42157 19.5 5.25 19.5H20.25C21.0784 19.5 21.75 18.8284 21.75 18V9C21.75 8.17157 21.0784 7.5 20.25 7.5H5.25ZM2.25 9C2.25 7.34315 3.59315 6 5.25 6H20.25C21.9069 6 23.25 7.34315 23.25 9V18C23.25 19.6569 21.9069 21 20.25 21H5.25C3.59315 21 2.25 19.6569 2.25 18V9Z" fill="#647994" stroke="#647994" stroke-width="0.3" stroke-linejoin="round"/>
<path fill-rule="evenodd" clip-rule="evenodd" d="M17.1172 2.30399C17.562 2.22037 18.0198 2.23537 18.4583 2.34797C18.8993 2.46122 19.3098 2.67039 19.6606 2.96057C20.0114 3.25075 20.2939 3.61478 20.4878 4.02668C20.6817 4.43859 20.7824 4.88822 20.7825 5.34349V6.74998H19.2825V5.34397C19.2825 5.34389 19.2825 5.34405 19.2825 5.34397C19.2824 5.10952 19.2306 4.87773 19.1307 4.66562C19.0308 4.45342 18.8853 4.26589 18.7046 4.11641C18.5238 3.96692 18.3124 3.85917 18.0852 3.80083C17.858 3.74249 17.6208 3.735 17.3904 3.77891L17.3762 3.78147L5.03898 5.88717C4.67699 5.9577 4.35059 6.1516 4.11549 6.43592C3.87901 6.72192 3.74975 7.08149 3.75 7.45259L3.75 9.74998H2.25V7.45333C2.25 7.45325 2.25 7.4534 2.25 7.45333C2.24963 6.73312 2.50054 6.03512 2.95949 5.48007C3.41854 4.92489 4.05695 4.54731 4.7646 4.41246L4.77882 4.40989L17.1172 2.30399Z" fill="#647994"/>
<path d="M19.2825 5.34397V6.74998H20.7825V5.34349C20.7824 4.88822 20.6817 4.43859 20.4878 4.02668C20.2939 3.61478 20.0114 3.25075 19.6606 2.96057C19.3098 2.67039 18.8993 2.46122 18.4583 2.34797C18.0198 2.23537 17.562 2.22037 17.1172 2.30399L4.77882 4.40989L4.7646 4.41246C4.05695 4.54731 3.41854 4.92489 2.95949 5.48007C2.50054 6.03512 2.24963 6.73312 2.25 7.45333M19.2825 5.34397C19.2825 5.34405 19.2825 5.34389 19.2825 5.34397ZM19.2825 5.34397C19.2824 5.10952 19.2306 4.87773 19.1307 4.66562C19.0308 4.45342 18.8853 4.26589 18.7046 4.11641C18.5238 3.96692 18.3124 3.85917 18.0852 3.80083C17.858 3.74249 17.6208 3.735 17.3904 3.77891L17.3762 3.78147L5.03898 5.88717C4.67699 5.9577 4.35059 6.1516 4.11549 6.43592C3.87901 6.72192 3.74975 7.08149 3.75 7.45259L3.75 9.74998H2.25V7.45333M2.25 7.45333C2.25 7.4534 2.25 7.45325 2.25 7.45333Z" stroke="#647994" stroke-width="0.3" stroke-linejoin="round"/>
<path d="M18 14.85C17.733 14.85 17.472 14.7708 17.25 14.6225C17.028 14.4741 16.8549 14.2633 16.7528 14.0166C16.6506 13.7699 16.6239 13.4985 16.6759 13.2366C16.728 12.9748 16.8566 12.7342 17.0454 12.5454C17.2342 12.3566 17.4748 12.228 17.7366 12.1759C17.9985 12.1239 18.2699 12.1506 18.5166 12.2528C18.7633 12.3549 18.9741 12.528 19.1225 12.75C19.2708 12.972 19.35 13.233 19.35 13.5C19.35 13.858 19.2078 14.2014 18.9546 14.4546C18.7014 14.7078 18.358 14.85 18 14.85Z" fill="#647994" stroke="#647994" stroke-width="0.3"/>
</svg>
