<svg width="25" height="24" viewBox="0 0 25 24" fill="none" xmlns="http://www.w3.org/2000/svg">
<path fill-rule="evenodd" clip-rule="evenodd" d="M5.25 7.5C4.42157 7.5 3.75 8.17157 3.75 9V18C3.75 18.8284 4.42157 19.5 5.25 19.5H20.25C21.0784 19.5 21.75 18.8284 21.75 18V9C21.75 8.17157 21.0784 7.5 20.25 7.5H5.25ZM2.25 9C2.25 7.34315 3.59315 6 5.25 6H20.25C21.9069 6 23.25 7.34315 23.25 9V18C23.25 19.6569 21.9069 21 20.25 21H5.25C3.59315 21 2.25 19.6569 2.25 18V9Z" fill="#65A7E5"/>
<path fill-rule="evenodd" clip-rule="evenodd" d="M17.1172 2.30399C17.562 2.22037 18.0198 2.23537 18.4583 2.34797C18.8993 2.46122 19.3098 2.67039 19.6606 2.96057C20.0114 3.25075 20.2939 3.61478 20.4878 4.02668C20.6817 4.43859 20.7824 4.88822 20.7825 5.34349V6.74998H19.2825V5.34397C19.2825 5.34389 19.2825 5.34405 19.2825 5.34397C19.2824 5.10952 19.2306 4.87773 19.1307 4.66562C19.0308 4.45342 18.8853 4.26589 18.7046 4.11641C18.5238 3.96692 18.3124 3.85917 18.0852 3.80083C17.858 3.74249 17.6208 3.735 17.3904 3.77891L17.3762 3.78147L5.03898 5.88717C4.67699 5.9577 4.35059 6.1516 4.11549 6.43592C3.87901 6.72192 3.74975 7.08149 3.75 7.45259L3.75 9.74998H2.25V7.45333C2.25 7.45325 2.25 7.4534 2.25 7.45333C2.24963 6.73312 2.50054 6.03512 2.95949 5.48007C3.41854 4.92489 4.05695 4.54731 4.7646 4.41246L4.77882 4.40989L17.1172 2.30399Z" fill="#65A7E5"/>
<path d="M18 15C17.7033 15 17.4133 14.912 17.1666 14.7472C16.92 14.5824 16.7277 14.3481 16.6142 14.074C16.5006 13.7999 16.4709 13.4983 16.5288 13.2074C16.5867 12.9164 16.7296 12.6491 16.9393 12.4393C17.1491 12.2296 17.4164 12.0867 17.7074 12.0288C17.9983 11.9709 18.2999 12.0006 18.574 12.1142C18.8481 12.2277 19.0824 12.42 19.2472 12.6666C19.412 12.9133 19.5 13.2033 19.5 13.5C19.5 13.8978 19.342 14.2794 19.0607 14.5607C18.7794 14.842 18.3978 15 18 15Z" fill="#65A7E5"/>
</svg>
